<svg xmlns="http://www.w3.org/2000/svg" version="1.1" xmlns:xlink="http://www.w3.org/1999/xlink" xmlns:svgjs="http://svgjs.com/svgjs" width="512" height="512" x="0" y="0" viewBox="0 0 511.998 511.998" style="enable-background:new 0 0 512 512" xml:space="preserve" class=""><g><circle cx="112.987" cy="96.839" r="44.841" style="stroke-width:20;stroke-linecap:round;stroke-linejoin:round;stroke-miterlimit:10;" fill="none" stroke="#334155" stroke-width="20" stroke-linecap="round" stroke-linejoin="round" stroke-miterlimit="10" data-original="#000000" opacity="1" class=""></circle><path d="m292.66 333.832-63.63-26.521a23.317 23.317 0 0 1-13.985-17.431h0c-3.085-17.306 13.362-31.673 30.096-26.289l48.893 15.728M446.221 431.631c20.036 4.129 52.888-13.787 55.777-40.457M352.703 264.633h0c-13.885 0-25.142-11.256-25.142-25.142v-50.47h13.588c20.266 0 36.696 16.429 36.696 36.696v13.774c0 13.886-11.257 25.142-25.142 25.142zM354.271 412.142c0-28.608 20.292-52.476 47.268-57.996" style="stroke-width:20;stroke-linecap:round;stroke-linejoin:round;stroke-miterlimit:10;" fill="none" stroke="#334155" stroke-width="20" stroke-linecap="round" stroke-linejoin="round" stroke-miterlimit="10" data-original="#000000" opacity="1" class=""></path><path d="m357.718 390.606-37.275 57.989a23.318 23.318 0 0 1-19.615 10.709h0c-17.579 0-28.836-18.712-20.6-34.243l24.063-45.374a20.21 20.21 0 0 0-.967-20.571h0a76.753 76.753 0 0 1-2.534-80.189l3.1-5.435h-20.93c-15.939 0-28.861-12.921-28.861-28.861v-11.395c0-6.082 4.931-11.013 11.013-11.013h0a25.321 25.321 0 0 0 20.974-11.134h0a50.193 50.193 0 0 1 41.573-22.069h6.559" style="stroke-width:20;stroke-linecap:round;stroke-linejoin:round;stroke-miterlimit:10;" fill="none" stroke="#334155" stroke-width="20" stroke-linecap="round" stroke-linejoin="round" stroke-miterlimit="10" data-original="#000000" opacity="1" class=""></path><path d="M460.249 358.175a77.034 77.034 0 0 1 3.85 24.08v0c0 42.597-34.531 77.128-77.128 77.128h-30.265c-13.047 0-23.624-10.577-23.624-23.624v0c0-13.047 10.577-23.624 23.624-23.624h34.241M362.015 263.051l22.334 27.6a56.86 56.86 0 0 0 10.78 10.233M84.154 365.376H65.691C34.934 365.376 10 340.442 10 309.685v-22.257h112.597c24.88 0 46.731 16.533 53.495 40.476h0c6.355 22.496-2.043 46.565-21.014 60.224l-91.983 66.228c-6.782 4.883-14.918 6.52-22.552 5.213a29.836 29.836 0 0 1-19.242-12.017c-9.662-13.42-6.616-32.132 6.804-41.794l77.335-54.895M72.934 215.465l20.284 56.526a23.308 23.308 0 0 0 21.939 15.436h66.941a23.31 23.31 0 0 0 20.464-12.15l10.012-17.784c6.573-11.675 2.013-26.473-9.99-32.425h0c-11.112-5.509-24.592-1.385-30.72 9.398l-3.604 6.342h-36.703l-18.57-51.751v-16.891c0-21.873-17.732-39.605-39.605-39.605h0C38.377 132.562 10 160.939 10 195.944v91.483h102.987M303.889 273.493l34.135-13.597M434.925 321.89h0" style="stroke-width:20;stroke-linecap:round;stroke-linejoin:round;stroke-miterlimit:10;" fill="none" stroke="#334155" stroke-width="20" stroke-linecap="round" stroke-linejoin="round" stroke-miterlimit="10" data-original="#000000" opacity="1" class=""></path></g></svg>