<svg xmlns="http://www.w3.org/2000/svg" version="1.1" xmlns:xlink="http://www.w3.org/1999/xlink" xmlns:svgjs="http://svgjs.com/svgjs" width="512" height="512" x="0" y="0" viewBox="0 0 64 64" style="enable-background:new 0 0 512 512" xml:space="preserve"><g><path d="M41.77 60H22.23a2.002 2.002 0 0 1-2-2V43.77H6a2.002 2.002 0 0 1-2-2V22.23a2.002 2.002 0 0 1 2-2h14.23V6a2.002 2.002 0 0 1 2-2h19.54a2.002 2.002 0 0 1 2 2v14.23H58a2.002 2.002 0 0 1 2 2v19.54a2.002 2.002 0 0 1-2 2H43.77V58a2.002 2.002 0 0 1-2 2ZM6 22.23v19.54h15.23a1 1 0 0 1 1 1V58h19.54V42.77a1 1 0 0 1 1-1H58V22.23H42.77a1 1 0 0 1-1-1V6H22.23v15.23a1 1 0 0 1-1 1Z" fill="#334155" data-original="#000000" opacity="1"></path><path d="M35.09 29.432a2.308 2.308 0 0 1-.403-.035c-1.608-.284-2.573-2.172-2.197-4.3.375-2.126 1.929-3.57 3.534-3.287a2.657 2.657 0 0 1 1.927 1.638 4.664 4.664 0 0 1 .27 2.66c-.343 1.949-1.674 3.324-3.13 3.324Zm.536-5.657c-.366 0-.982.624-1.167 1.67-.193 1.097.218 1.92.575 1.982.358.065 1.025-.568 1.218-1.666a2.688 2.688 0 0 0-.13-1.505c-.12-.27-.286-.448-.445-.476a.289.289 0 0 0-.05-.005ZM39.748 33.278a2.032 2.032 0 0 1-.697-.123 2.29 2.29 0 0 1-1.397-1.674 4.051 4.051 0 0 1 1.457-4.005 2.288 2.288 0 0 1 2.147-.385c1.313.478 1.856 2.184 1.238 3.884a3.18 3.18 0 0 1-2.748 2.303Zm.812-4.31a.532.532 0 0 0-.268.122 2.073 2.073 0 0 0-.696 1.913c.046.186.118.266.139.273.09.04.602-.216.882-.985.279-.769.045-1.289-.043-1.32ZM24.252 33.278a3.18 3.18 0 0 1-2.748-2.302c-.618-1.701-.075-3.407 1.238-3.885a2.291 2.291 0 0 1 2.147.385 4.05 4.05 0 0 1 1.457 4.005 2.29 2.29 0 0 1-1.397 1.675 2.036 2.036 0 0 1-.697.122Zm-.869-2.987c.282.771.797 1.013.882.985.021-.007.093-.087.14-.273a2.07 2.07 0 0 0-.697-1.913.458.458 0 0 0-.282-.12c-.088.032-.322.552-.043 1.321ZM28.91 29.432c-1.457 0-2.788-1.375-3.132-3.323a4.664 4.664 0 0 1 .271-2.66 2.657 2.657 0 0 1 1.927-1.639c1.606-.286 3.159 1.161 3.534 3.288.376 2.127-.59 4.015-2.197 4.299a2.314 2.314 0 0 1-.403.035Zm-.536-5.657a.283.283 0 0 0-.05.005c-.16.028-.326.206-.445.476a2.688 2.688 0 0 0-.131 1.505c.193 1.097.857 1.735 1.218 1.666.357-.063.768-.886.575-1.982-.185-1.046-.801-1.67-1.167-1.67ZM27.733 42.221a4.262 4.262 0 0 1-3.41-1.431 3.547 3.547 0 0 1 .315-4.721 7.607 7.607 0 0 1 1.167-.825 3.436 3.436 0 0 0 1.15-.932 5.371 5.371 0 0 0 .481-1.118 6.707 6.707 0 0 1 .752-1.636 4.456 4.456 0 0 1 3.848-1.724c2.344 0 3.437.962 3.94 1.769a6.586 6.586 0 0 1 .656 1.575 4.391 4.391 0 0 0 .492 1.186 2.943 2.943 0 0 0 1.193.964 5.334 5.334 0 0 1 1.117.74 3.547 3.547 0 0 1 .315 4.722c-1.193 1.488-3.333 1.616-4.8 1.273a6.64 6.64 0 0 1-1.69-.73 3.202 3.202 0 0 0-1.223-.501 3.2 3.2 0 0 0-1.224.502 6.646 6.646 0 0 1-1.69.73 6.183 6.183 0 0 1-1.39.157Zm4.303-10.387a2.68 2.68 0 0 0-2.198.854 5.05 5.05 0 0 0-.514 1.166 7.037 7.037 0 0 1-.688 1.541 5.116 5.116 0 0 1-1.786 1.554 5.924 5.924 0 0 0-.87.603 1.533 1.533 0 0 0-.096 1.987 2.864 2.864 0 0 0 2.783.577 5.038 5.038 0 0 0 1.179-.533 4.592 4.592 0 0 1 2.19-.751 4.592 4.592 0 0 1 2.19.75 5.033 5.033 0 0 0 1.178.533 2.865 2.865 0 0 0 2.784-.576 1.533 1.533 0 0 0-.096-1.987 3.605 3.605 0 0 0-.725-.465 4.852 4.852 0 0 1-1.883-1.577 6.053 6.053 0 0 1-.762-1.737 4.897 4.897 0 0 0-.442-1.11 2.629 2.629 0 0 0-2.244-.829Z" fill="#334155" data-original="#000000" opacity="1"></path></g></svg>